<svg id="Capa_1" data-name="Capa 1" xmlns="http://www.w3.org/2000/svg" viewBox="0 0 498 498"><defs><style>.cls-1{fill:#0dff00;}</style></defs><title>fvaicon</title><circle class="cls-1" cx="499.55" cy="-65.67" r="249" transform="translate(-57.8 648.68) rotate(-45)"/><path d="M448.53-298.71c2.22,3,4.52,5.88,6.64,8.91,11.92,17.05,24.06,34,35.58,51.28,6.54,9.82,11.91,20.4,18,30.5,5.4,8.91,6.91,9.23,12.26.19,13-21.92,32.67-37.59,50-55.46,5.91-6.09,11.59-12.4,17.44-18.54,1.32-1.39,2.91-2.51,5.49-4.7.64,3.48,1.23,5.76,1.44,8.08,2.11,22.67-.91,44.84-6.4,66.82-3.76,15.07-6.41,30.32-5.48,46,.35,5.9.63,6.75,6.4,5.64,22.7-4.36,45.34-9.1,68-13.72,5-1,10-2.43,15.14-3.09,2.16-.28,4.5.91,6.77,1.43-1,2-1.63,4.2-3,5.88-7.41,9.2-15.69,17.79-22.32,27.52a256.13,256.13,0,0,0-18.74,32.91c-5.06,10.45-10.92,20.18-18.56,28.86-5.84,6.64-5.64,8.9,2.61,12.7,15.16,7,30.7,12.94,47.67,14,2.08.13,4.09,1.4,6.14,2.14-1.07,2-1.69,4.49-3.29,5.83-6.24,5.24-12.82,10.07-19.22,15.13-11.4,9-22.16,18.69-30.51,30.74-7.27,10.49-6.77,18.34,3.33,26.08,8.94,6.84,18.85,12.45,28.54,18.24,6.15,3.67,6.89,5.89.51,9a160.5,160.5,0,0,1-28.29,10.73c-12.3,3.36-13.66,4-11.43,16.54,1.65,9.31,4.63,18.39,7,27.58,1.54,6.07.81,7.33-5.52,6.92-7.29-.47-14.51-1.86-21.79-2.6-7.72-.77-8.57.1-8.93,8-.23,4.82-.25,9.67-.72,14.47-.13,1.42-1.77,4-2.21,3.89a36.93,36.93,0,0,1-8.69-3.22c-.53-.29-.49-2.87.1-3.94,7.67-13.67,12.29-28.39,15.29-43.67,1.12-5.69,4.41-9.21,9.41-12,18.34-10.42,20.32-31.63,4-45C594.86,26.06,592,20.64,592.16,12c.45-27.82-.3-55.65-.5-83.48-.1-14.87-4.86-28.81-8.06-43.1A104.81,104.81,0,0,0,561-159.75c-18.52-21.92-42.92-30.07-71.12-26.86-19.41,2.22-36.26,10.45-51.32,22.81-4.85,4-10.82,6.58-15.86,10.36a112.19,112.19,0,0,0-15.64,13.59c-3.89,4.25-3.81,9.65-.79,14.91,1.06,1.84,2.1,4.51,1.55,6.31-6.9,22.61-10,45.95-12,69.31-1.91,21.69-1.93,43.56-2.4,65.37-.09,4.2-1,7.2-4.21,9.92-8,6.77-11.56,15.51-11.67,26-.13,12.52,5.78,21.12,16.78,25.93,6.57,2.88,10.24,7.28,12.49,13.85,4.09,12,8.59,23.79,13.1,35.6,1.53,4,1.27,6.78-3.35,8-3.54.93-7,2.14-10.62,2.82-5.16,1-6.52-.29-5.95-5.44.65-5.79,1.77-11.53,2.4-17.32.86-7.88-.63-10.1-8.59-10.68-9.45-.7-19-.56-28.44-.75-8.57-.18-9.56-1.46-6.9-9.46,3.69-11.06,7.64-22,11.17-33.15,3.13-9.89,2.85-10.14-6.39-14.25-10-4.47-20.24-8.61-30.05-13.53-10.5-5.26-10.8-7.72-2.72-16.12C340.86,6.68,351.56-3.83,362-14.6c4.34-4.49,4.35-5.77-1.14-9.14-14-8.6-28.33-16.8-42.55-25.1-2.15-1.25-4.55-2.07-6.73-3.29-4.87-2.73-5-5.12-.1-7.62,8.91-4.51,18-8.63,27-12.9,9.94-4.69,20-9.17,29.79-14.11,6.83-3.44,7.62-5.13,5-12.35-8.77-24.1-17.88-48.07-26.84-72.1-2.45-6.56-4.95-13.09-7.14-19.74-.66-2-.34-4.38-.47-6.59,2.1,0,4.34-.54,6.26,0,12.63,3.71,25.18,7.64,37.76,11.51,13.69,4.21,27.35,8.54,41.08,12.62,10.53,3.13,11.75,1.72,13.55-9.33,5.77-35.29,7-70.9,8.07-106.54.09-2.91.68-5.81,1-8.72Z" transform="translate(-250.55 314.68)"/><path d="M585.48-45.1a41,41,0,0,1,1,5.62c1.56,37.81,3.1,75.72-1.28,113.34C581.47,106,569.32,135,545.48,158.05a29.19,29.19,0,0,1-8.64,5.77c-23.51,10-47.81,9.68-71.35,1.74-16.08-5.43-28.17-17.75-36.52-32.71-14.55-26.07-22.81-54.3-26.31-83.86-2.35-19.81-5.57-39.75-5.37-59.6.34-32.85,6.37-65.25,12.71-97.47,1.35-6.9,3.92-12.49,11.57-14.67,3.59-1,6.7-3.66,10.08-5.46,8.21-4.36,15.94-3.43,22.45,3.1,5.5,5.53,10.31,11.75,15.58,17.52,8.18,9,16.89,16.9,29.82,18.54,6.34.81,6.74,2.35,4.35,8.52-4.23,10.94-5.79,22.05-3.4,33.77,3.39,16.57,17.68,31.5,32.26,33.76,23.53,3.63,41.72-8.11,48.66-22.58,1.43-3,2-6.41,2.92-9.63Zm-128.35,106A20.64,20.64,0,0,0,445,71c-6,11-6.27,22.29-1.67,33.74.9,2.23,2.32,4.81,4.26,6,6.53,3.9,13.12,8.26,21.43,6.38,3.32-.76,5.54.63,7.85,3,2.77,2.8,6.28,4.85,9.16,7.56,2.14,2,4.5,4.31,5.45,7,1.26,3.53,1,7.58,1.82,11.3,1.59,7.15,6.71,8.83,11.89,3.65,2.49-2.49,4.21-5.94,5.69-9.22,3.37-7.49,6.92-10,15-9.74,3.49.13,7,.49,10.46.8,18.16,1.64,31.54-9.09,33.53-27.17a54.51,54.51,0,0,0-9.25-37c-1.38-2.08-3.5-3.67-5.66-5.86-2.51,4-.52,6.49,1.05,8.92,5.9,9.13,10.5,18.88,9.64,29.93-1.35,17.25-11.38,27.81-30.13,26.14-1.94-.18-3.72-2.09-5.57-3.2a48.5,48.5,0,0,1,5.49-5.07c.92-.63,2.59-.26,3.91-.21,11.37.45,17.41-4.43,20.34-15.49,4.1-15.44-7.93-33.24-17.76-39-1-.6-2.76-1-3.67-.55-3.1,1.6-6,3.63-9,5.49q-1.46-4.95-2.93-9.9c0-.15-.13-.29-.64-1.42-5-1-10.65-2.4-16.35-3.27-7.18-1.09-7.21-.91-8.92,5.89-.16.64-.22,1.47-.65,1.85-1.53,1.33-3.11,3.25-4.84,3.45-1,.11-2.8-2.56-3.32-4.26-.76-2.44-.67-5.14-1-8-6.92,1.13-13.5,1.86-19.86,3.47-1.73.43-3,3.39-4.1,5.41a83.44,83.44,0,0,0-3.24,7.73l-5.5-7C457.83,61.93,457.65,61.66,457.13,60.94Zm-6-72.81c8.6,1,17.51-2.42,24.81-9.87,10.38-10.6,14-23.83,14.52-38.22.71-20.74-7.14-33.15-26.22-41.43C444-110.2,418.5-100.27,409.61-80.2c-3.76,8.47-4.24,17.4-4,26.42C406.22-27.47,423-11.43,451.14-11.87ZM474.45,125c-2.73-.58-4.31-1.23-5.87-1.19-4.16.12-8.31.67-12.47.8-10.93.34-22.56-9.83-23.66-20.72C431,89.54,434.89,77,445,66.42c1.61-1.68,1.7-4.8,2.49-7.26-2.25,1-5.1,1.38-6.65,3-7.76,8.27-11.6,18.42-13.48,29.51-2.52,14.83,3.38,26,14.7,34.85C449.24,132.19,465.84,131.9,474.45,125ZM507.54-12.62l-1.61.35c-.14,1.6-.35,3.2-.43,4.81-.4,8.64-.46,17.32-1.28,25.92a42.44,42.44,0,0,1-3.47,13.36c-2.76,6-7.47,6.18-10.74.38a35.52,35.52,0,0,1-4.5-13c-.87-7.57-.57-15.28-.8-22.93-.09-3.22-.29-6.43-.45-9.65l-1.66-.31c-.75,2-1.91,3.86-2.21,5.88-2,13.26-.37,26.27,3.84,38.86,1.14,3.4,3.94,6.58,6.72,9,3.76,3.29,8.08,3,10.79-1.23,3-4.6,6.06-9.86,6.69-15.12,1.19-9.85.75-19.91.74-29.89C509.16-8.33,508.11-10.48,507.54-12.62Zm9,9.9-.71,1.8C523.22,9,534.1,11.55,545.72,11.9,558,12.27,569.3,9.81,577.56-.4c-2.73-3.79-4.81-1.83-6.64-.21C563.73,5.76,555.41,7.65,546,7c-8-.59-15.33-2.44-22.1-6.81C521.7-1.23,519-1.78,516.56-2.72Zm-99-.24c-.87,5.18,1.48,8,4.68,9.3C438,12.68,454,14.79,469.9,6.53c1.46-.75,2.55-2.22,4.67-4.14-2.22-.14-3.19-.42-4.05-.23-5.68,1.27-11.26,3.21-17,3.87-11.3,1.3-22.67,2-31.86-7C420.81-1.79,419.42-2.07,417.53-3Z" transform="translate(-250.55 314.68)"/><path d="M459.39-173.53c8.11-2.73,16-6.37,24.36-8C520.93-189,552-174.48,569.14-141c1.52,3,1.91,5-2.21,6.31-13.25,4.36-26.37,9.09-39.54,13.69-.47.16-.93.37-1.39.56-20.14,8.14-30.46,5.23-42.67-12.74-8.59-12.63-18.72-22.92-34.29-26.35a23.36,23.36,0,0,1-4.08-1.72c3.47-5.59,5.18-5.29,10.79-4.32,12.54,2.17,19.51,11.3,27.23,19.73,2.88,3.15,5.95,6.05,10.34,6.45l1.29-1.44c-5.27-5.8-10.11-12.08-15.94-17.26s-12.5-9.13-18.82-13.62Z" transform="translate(-250.55 314.68)"/><path d="M581.42-62.45C580-54.95,579.22-47.26,577-40c-1.25,4-4.42,7.85-7.66,10.71C553-14.95,530-15.73,515.9-31.14c-11.39-12.49-11.44-27.41-7.95-42.8a55,55,0,0,1,2.12-6.14c2.51-7.06,6.84-11.56,14.72-13.18,6.77-1.39,13.09-4.93,19.82-6.68,3.59-.93,8.06-1.18,11.42.12C572.71-93.36,580.69-80.87,581.42-62.45Zm-7.21-11.18c0-4.09-3.16-7.32-6.54-7.23a7,7,0,0,0-6.31,7c.27,3.83,2.65,5.53,6.28,5.5S574-70,574.21-73.63Z" transform="translate(-250.55 314.68)"/><path d="M504.28-94.84c-11.59.82-18.45-7.14-25.79-13.72-4.3-3.86-7.73-8.69-11.58-13.06-2.09-2.37-4.09-4.83-6.35-7-10.15-9.94-20.78-11.23-33.16-4.23-2.88,1.63-5.74,3.47-8.85,4.5-5.13,1.7-8.73-1.79-7.25-7a17.93,17.93,0,0,1,3.57-6.46c12.36-14.37,37.19-19.16,52.58-2.34C472.83-138.29,477.82-132,483-126c2.16,2.53,4.44,5,6.5,7.56,8.13,10.28,26.38,7.73,36.89,3.47,8.32-3.37,16.42-7.34,24.89-10.26a69.47,69.47,0,0,1,16.56-3.07c3.74-.32,7.61,1.14,8.46,5.47.79,4-2.41,6.12-5.49,7.4-6.6,2.73-13.33,5.18-20.09,7.48-10.55,3.59-21.11,7.17-31.79,10.35C514.2-96.16,509.17-95.72,504.28-94.84Z" transform="translate(-250.55 314.68)"/><path d="M382.38,50.28c2.19-5.81,3.81-11.94,6.76-17.33,2.29-4.19,5.89-3.52,6.76,1.17,2.14,11.61,3.76,23.32,5.27,35,.46,3.57-2,3.67-4.61,2.42-8.74-4.19-12.74-11.32-12.93-20.82Z" transform="translate(-250.55 314.68)"/><path d="M594.2,70.52a17.72,17.72,0,0,1-.89-3.9c.09-9.47.18-18.94.56-28.4.07-1.76,1.47-3.46,2.25-5.19,1.65.91,3.64,1.47,4.88,2.76C613.72,49,609.36,61,596.94,69.55A12.91,12.91,0,0,1,594.2,70.52Z" transform="translate(-250.55 314.68)"/><path d="M585.8-78.9c-3.33-4.77-6.24-9.76-10-14-2.9-3.3-6.89-5.63-10.29-8.51-1-.87-2.6-2.34-2.4-3.14a5.74,5.74,0,0,1,3-3.32,46.82,46.82,0,0,1,9.93-3.22c1.5-.27,4.52.77,4.77,1.75,2.31,9,4.19,18,6.11,27.1a5.14,5.14,0,0,1-.44,2.42C586.41-79.44,586-79.14,585.8-78.9Z" transform="translate(-250.55 314.68)"/><path d="M499.88,144.33a77.82,77.82,0,0,1-1.41-8.51c-.44-7.34-2.53-13.31-10.48-15.71-1.24-.37-2.8-2.7-2.62-3.89s2.4-2.87,3.71-2.85c10.75.18,21.5.61,32.24,1.23,1.35.07,3.41,1.44,3.7,2.58s-1,2.92-2.07,4a14.06,14.06,0,0,1-4.11,2.76A21.9,21.9,0,0,0,507,137.28c-.91,2.76-3.21,5.06-4.89,7.58Z" transform="translate(-250.55 314.68)"/><path d="M518.25,53.13c.62,5.3,2.14,9.17-2.2,11.31-1.07.54-3.58.19-4.15-.64-1.48-2.15-2.25-4.79-3.31-7.24Z" transform="translate(-250.55 314.68)"/><path d="M485.52,60.9c-.57.69-1.74,3.3-3.68,4.14-2.22,1-7-5.27-6-8.21.45-1.33,3.29-2.49,5.12-2.6C485.17,54,485.72,54.83,485.52,60.9Z" transform="translate(-250.55 314.68)"/><path d="M486.72-66.49c-.17,14.31-3.62,25.85-10.45,35.86-3,4.36-8.25,8-13.27,9.93-18.8,7.11-41.47-.88-49.08-21.75-5.6-15.33-1.48-29.29,4.88-42.81,1.9-4,6.79-7.39,11.08-9.44,8.76-4.21,17.78-8.66,28.13-5.3,12.41,4,21.32,12.16,26.85,23.75C486.51-72.8,486.37-68.5,486.72-66.49ZM482-73.89c.07-3.67-2.66-6-7-5.93-4,.07-6.37,2.45-6.36,6.19a6.11,6.11,0,0,0,6.23,6.48A6.78,6.78,0,0,0,482-73.89Z" transform="translate(-250.55 314.68)"/></svg>